<svg width="163" height="138" viewBox="0 0 163 138" fill="none" xmlns="http://www.w3.org/2000/svg">
<path d="M5.5349 65.3196L73.9712 39.5233" stroke="#606FBC" stroke-opacity="0.92" stroke-width="2" stroke-miterlimit="10" stroke-linecap="round" stroke-linejoin="round"/>
<path d="M66.6103 29.1783C68.7987 29.1783 70.7881 30.5709 71.5839 32.6266L86.7036 72.6141C87.7646 75.333 86.372 78.4498 83.5868 79.4445L23.9703 101.991C23.3734 102.19 22.7766 102.323 22.1135 102.323C19.9251 102.323 17.9357 100.93 17.1399 98.8746L2.02024 58.8871C1.48973 57.5608 1.55604 56.1019 2.15287 54.8419C2.7497 53.5156 3.81073 52.5872 5.13701 52.0567L64.7535 29.5098C65.3504 29.3109 65.9472 29.1783 66.6103 29.1783ZM66.6103 27.852C65.8146 27.852 65.0188 27.9846 64.2893 28.2499L4.67281 50.7967C1.29079 52.0567 -0.4997 55.9029 0.826586 59.3513L15.9462 99.3388C16.941 101.991 19.4609 103.649 22.1798 103.649C22.9756 103.649 23.7713 103.517 24.5008 103.251L84.1173 80.7045C87.4993 79.4445 89.2898 75.5983 87.9635 72.1499L72.8439 32.1624C71.8492 29.5098 69.2629 27.852 66.6103 27.852Z" fill="#606FBC" fill-opacity="0.92"/>
<path d="M8.98323 60.9428C10.5947 60.9428 11.9011 59.6365 11.9011 58.025C11.9011 56.4135 10.5947 55.1072 8.98323 55.1072C7.37175 55.1072 6.0654 56.4135 6.0654 58.025C6.0654 59.6365 7.37175 60.9428 8.98323 60.9428Z" stroke="#606FBC" stroke-opacity="0.92" stroke-width="2" stroke-miterlimit="10"/>
<path d="M17.4714 57.7597C19.0829 57.7597 20.3893 56.4534 20.3893 54.8419C20.3893 53.2304 19.0829 51.9241 17.4714 51.9241C15.86 51.9241 14.5536 53.2304 14.5536 54.8419C14.5536 56.4534 15.86 57.7597 17.4714 57.7597Z" stroke="#606FBC" stroke-opacity="0.92" stroke-width="2" stroke-miterlimit="10"/>
<path d="M25.9597 54.643C27.5712 54.643 28.8775 53.3366 28.8775 51.7251C28.8775 50.1137 27.5712 48.8073 25.9597 48.8073C24.3482 48.8073 23.0419 50.1137 23.0419 51.7251C23.0419 53.3366 24.3482 54.643 25.9597 54.643Z" stroke="#606FBC" stroke-opacity="0.92" stroke-width="2" stroke-miterlimit="10"/>
<path d="M28.1481 78.3835C28.0155 78.3172 27.9492 78.3172 27.9492 78.2508C27.8828 78.2508 27.8828 78.1845 27.8828 78.1845C27.8165 78.1845 27.8165 78.1182 27.8165 78.1182C27.7502 78.0519 27.7502 78.0519 27.7502 77.9856C27.6839 77.9193 27.6839 77.853 27.6839 77.7866C27.6839 77.7203 27.6839 77.654 27.6839 77.5877C27.6839 77.5214 27.6839 77.4551 27.6839 77.4551L27.7502 77.3225V77.2561L32.7238 66.1153C32.9227 65.7838 33.3869 65.5185 33.7848 65.7175C34.1827 65.9164 34.3153 66.3806 34.1827 66.7785L29.4744 77.2561L39.8857 82.0308C40.2173 82.2297 40.4162 82.6276 40.2836 83.0255C40.2173 83.2244 40.0184 83.357 39.8194 83.4234C39.6205 83.4897 39.4215 83.4897 39.2226 83.3571L28.1481 78.3835Z" fill="#606FBC" fill-opacity="0.92"/>
<path d="M44.793 80.5718L45.5224 61.4733C45.5887 61.1418 45.854 60.8102 46.1856 60.8102C46.5834 60.8102 46.8487 61.1418 46.8487 61.4733L46.1192 80.6382C46.1192 80.9034 45.9203 81.1687 45.7214 81.235C45.5887 81.3013 45.5224 81.3013 45.4561 81.3013C45.1245 81.235 44.793 80.9697 44.793 80.5718Z" fill="#606FBC" fill-opacity="0.92"/>
<path d="M56.9948 75.5983L61.7031 65.1206L51.2918 60.4123C50.8939 60.2134 50.7612 59.7492 50.8939 59.3513C51.0928 58.9534 51.557 58.8208 51.9549 58.9534L63.0294 64.0596H63.0957C63.2946 64.1259 63.4273 64.3248 63.4936 64.5238C63.5599 64.6564 63.5599 64.8554 63.4936 65.0543V65.1206V65.1869L58.52 76.2614C58.4537 76.4604 58.2548 76.593 58.1221 76.6593C57.9232 76.7256 57.7242 76.7256 57.5253 76.6593C56.9948 76.394 56.8622 75.9298 56.9948 75.5983Z" fill="#606FBC" fill-opacity="0.92"/>
<path d="M159.674 1.32629C160.802 1.32629 161.664 2.18837 161.664 3.31571V134.684C161.664 135.812 160.802 136.674 159.674 136.674H95.482C94.3547 136.674 93.4926 135.812 93.4926 134.684V3.31571C93.4926 2.18837 94.3547 1.32629 95.482 1.32629H159.674ZM159.674 0H95.482C93.6252 0 92.1663 1.45891 92.1663 3.31571V134.684C92.1663 136.541 93.6252 138 95.482 138H159.674C161.531 138 162.99 136.541 162.99 134.684V3.31571C162.99 1.45891 161.531 0 159.674 0Z" fill="#606FBC" fill-opacity="0.92"/>
<path d="M151.65 11.1408C152.778 11.1408 153.64 12.0029 153.64 13.1302V85.8107C153.64 86.938 152.778 87.8001 151.65 87.8001H103.44C102.312 87.8001 101.45 86.938 101.45 85.8107V13.1302C101.45 12.0029 102.312 11.1408 103.44 11.1408H151.65ZM151.65 9.81451H103.44C101.583 9.81451 100.124 11.2734 100.124 13.1302V85.8107C100.124 87.6675 101.583 89.1264 103.44 89.1264H151.65C153.507 89.1264 154.966 87.6675 154.966 85.8107V13.1302C154.966 11.2734 153.507 9.81451 151.65 9.81451Z" fill="#606FBC" fill-opacity="0.92"/>
<path d="M119.488 97.283H102.909V107.694H119.488V97.283Z" stroke="#606FBC" stroke-opacity="0.92" stroke-width="2" stroke-miterlimit="10" stroke-linecap="round" stroke-linejoin="round"/>
<path d="M135.867 97.283H119.289V107.694H135.867V97.283Z" stroke="#606FBC" stroke-opacity="0.92" stroke-width="2" stroke-miterlimit="10" stroke-linecap="round" stroke-linejoin="round"/>
<path d="M152.247 97.283H135.668V107.694H152.247V97.283Z" stroke="#606FBC" stroke-opacity="0.92" stroke-width="2" stroke-miterlimit="10" stroke-linecap="round" stroke-linejoin="round"/>
<path d="M119.488 107.495H102.909V117.907H119.488V107.495Z" stroke="#606FBC" stroke-opacity="0.92" stroke-width="2" stroke-miterlimit="10" stroke-linecap="round" stroke-linejoin="round"/>
<path d="M135.867 107.495H119.289V117.907H135.867V107.495Z" stroke="#606FBC" stroke-opacity="0.92" stroke-width="2" stroke-miterlimit="10" stroke-linecap="round" stroke-linejoin="round"/>
<path d="M152.247 107.495H135.668V117.907H152.247V107.495Z" stroke="#606FBC" stroke-opacity="0.92" stroke-width="2" stroke-miterlimit="10" stroke-linecap="round" stroke-linejoin="round"/>
<path d="M119.488 117.774H102.909V128.185H119.488V117.774Z" stroke="#606FBC" stroke-opacity="0.92" stroke-width="2" stroke-miterlimit="10" stroke-linecap="round" stroke-linejoin="round"/>
<path d="M135.867 117.774H119.289V128.185H135.867V117.774Z" stroke="#606FBC" stroke-opacity="0.92" stroke-width="2" stroke-miterlimit="10" stroke-linecap="round" stroke-linejoin="round"/>
<path d="M152.247 117.774H135.668V128.185H152.247V117.774Z" stroke="#606FBC" stroke-opacity="0.92" stroke-width="2" stroke-miterlimit="10" stroke-linecap="round" stroke-linejoin="round"/>
<path d="M121.61 37.6002V18.1701H133.546V37.6002L127.578 43.9664L121.61 37.6002Z" stroke="#606FBC" stroke-opacity="0.92" stroke-width="2" stroke-miterlimit="10" stroke-linecap="round" stroke-linejoin="round"/>
<path d="M144.422 19.2975V25.2657L133.546 31.433V22.6132L144.422 19.2975Z" stroke="#606FBC" stroke-opacity="0.92" stroke-width="2" stroke-miterlimit="10" stroke-linecap="round" stroke-linejoin="round"/>
<path d="M144.422 30.5046V25.2657" stroke="#606FBC" stroke-opacity="0.92" stroke-width="2" stroke-miterlimit="10" stroke-linecap="round" stroke-linejoin="round"/>
<path d="M110.801 19.2975V25.2657L121.61 31.433V22.6132L110.801 19.2975Z" stroke="#606FBC" stroke-opacity="0.92" stroke-width="2" stroke-miterlimit="10" stroke-linecap="round" stroke-linejoin="round"/>
<path d="M110.801 30.5046V25.2657" stroke="#606FBC" stroke-opacity="0.92" stroke-width="2" stroke-miterlimit="10" stroke-linecap="round" stroke-linejoin="round"/>
<path d="M144.422 35.0139V36.1413" stroke="#606FBC" stroke-opacity="0.92" stroke-width="2" stroke-miterlimit="10" stroke-linecap="round" stroke-linejoin="round"/>
<path d="M110.801 35.0139V36.1413" stroke="#606FBC" stroke-opacity="0.92" stroke-width="2" stroke-miterlimit="10" stroke-linecap="round" stroke-linejoin="round"/>
<path d="M144.422 40.9822V42.1096" stroke="#606FBC" stroke-opacity="0.92" stroke-width="2" stroke-miterlimit="10" stroke-linecap="round" stroke-linejoin="round"/>
<path d="M110.801 40.9822V42.1096" stroke="#606FBC" stroke-opacity="0.92" stroke-width="2" stroke-miterlimit="10" stroke-linecap="round" stroke-linejoin="round"/>
<path d="M144.422 46.221V47.3484" stroke="#606FBC" stroke-opacity="0.92" stroke-width="2" stroke-miterlimit="10" stroke-linecap="round" stroke-linejoin="round"/>
<path d="M110.801 46.221V47.3484" stroke="#606FBC" stroke-opacity="0.92" stroke-width="2" stroke-miterlimit="10" stroke-linecap="round" stroke-linejoin="round"/>
<path d="M144.422 52.1893V53.3167" stroke="#606FBC" stroke-opacity="0.92" stroke-width="2" stroke-miterlimit="10" stroke-linecap="round" stroke-linejoin="round"/>
<path d="M110.801 52.1893V53.3167" stroke="#606FBC" stroke-opacity="0.92" stroke-width="2" stroke-miterlimit="10" stroke-linecap="round" stroke-linejoin="round"/>
<path d="M123.268 80.9034V73.5425C123.268 73.5425 122.406 70.4258 127.578 67.309C132.751 70.4258 131.889 73.5425 131.889 73.5425V80.9034H123.268Z" stroke="#606FBC" stroke-opacity="0.92" stroke-width="2" stroke-miterlimit="10" stroke-linecap="round" stroke-linejoin="round"/>
<path d="M115.907 79.7097L123.268 73.4762V78.3172L115.907 79.7097Z" stroke="#606FBC" stroke-opacity="0.92" stroke-width="2" stroke-miterlimit="10" stroke-linecap="round" stroke-linejoin="round"/>
<path d="M139.249 79.7097L131.889 73.4762V78.3172L139.249 79.7097Z" stroke="#606FBC" stroke-opacity="0.92" stroke-width="2" stroke-miterlimit="10" stroke-linecap="round" stroke-linejoin="round"/>
<path d="M127.578 75.7972V80.9034" stroke="#606FBC" stroke-opacity="0.92" stroke-width="2" stroke-miterlimit="10" stroke-linecap="round" stroke-linejoin="round"/>
<path d="M117.631 60.147V61.7386" stroke="#606FBC" stroke-opacity="0.92" stroke-width="2" stroke-miterlimit="10" stroke-linecap="round" stroke-linejoin="round"/>
<path d="M117.631 65.5185V71.1552" stroke="#606FBC" stroke-opacity="0.92" stroke-width="2" stroke-miterlimit="10" stroke-linecap="round" stroke-linejoin="round"/>
<path d="M117.631 74.4709V78.5161" stroke="#606FBC" stroke-opacity="0.92" stroke-width="2" stroke-miterlimit="10" stroke-linecap="round" stroke-linejoin="round"/>
<path d="M137.525 60.147V61.7386" stroke="#606FBC" stroke-opacity="0.92" stroke-width="2" stroke-miterlimit="10" stroke-linecap="round" stroke-linejoin="round"/>
<path d="M137.525 65.5185V71.1552" stroke="#606FBC" stroke-opacity="0.92" stroke-width="2" stroke-miterlimit="10" stroke-linecap="round" stroke-linejoin="round"/>
<path d="M137.525 74.4709V78.5161" stroke="#606FBC" stroke-opacity="0.92" stroke-width="2" stroke-miterlimit="10" stroke-linecap="round" stroke-linejoin="round"/>
</svg>
